<svg xmlns:xlink="http://www.w3.org/1999/xlink" xmlns="http://www.w3.org/2000/svg" width="247" height="273" viewBox="-1 -1 247 273" fill="none" id="svg-1260778850_5626">
<path fill-rule="evenodd" clip-rule="evenodd" d="M38.4953 20.8462C33.8538 20.8462 29.4023 22.6764 26.1203 25.9342C22.8382 29.1921 20.9943 33.6107 20.9943 38.2179V232.782C20.9943 237.389 22.8382 241.808 26.1203 245.066C29.4023 248.324 33.8538 250.154 38.4953 250.154H206.505C211.146 250.154 215.598 248.324 218.88 245.066C222.162 241.808 224.006 237.389 224.006 232.782V38.2179C224.006 33.6107 222.162 29.1921 218.88 25.9342C215.598 22.6764 211.146 20.8462 206.505 20.8462H38.4953ZM11.2702 11.1938C18.4907 4.02652 28.2839 0 38.4953 0H206.505C216.716 0 226.509 4.02652 233.73 11.1938C240.95 18.361 245.007 28.0819 245.007 38.2179V232.782C245.007 242.918 240.95 252.639 233.73 259.806C226.509 266.973 216.716 271 206.505 271H38.4953C28.2839 271 18.4907 266.973 11.2702 259.806C4.04963 252.639 -0.00683594 242.918 -0.00683594 232.782V38.2179C-0.00683594 28.0819 4.04963 18.361 11.2702 11.1938Z" fill="url(&quot;#svg-1260778850_5626_paint0_linear_1319_8103&quot;)"></path>
<path fill-rule="evenodd" clip-rule="evenodd" d="M80.4977 76.4359C79.5694 76.4359 78.6791 76.8019 78.0227 77.4535C77.3662 78.1051 76.9975 78.9888 76.9975 79.9103V93.8077C76.9975 94.7291 77.3662 95.6129 78.0227 96.2644C78.6791 96.916 79.5694 97.2821 80.4977 97.2821H164.502C165.431 97.2821 166.321 96.916 166.977 96.2644C167.634 95.6129 168.003 94.7291 168.003 93.8077V79.9103C168.003 78.9888 167.634 78.1051 166.977 77.4535C166.321 76.8019 165.431 76.4359 164.502 76.4359H80.4977ZM63.1726 62.7131C67.7675 58.1521 73.9995 55.5897 80.4977 55.5897H164.502C171.001 55.5897 177.233 58.1521 181.827 62.7131C186.422 67.274 189.004 73.46 189.004 79.9103V93.8077C189.004 100.258 186.422 106.444 181.827 111.005C177.233 115.566 171.001 118.128 164.502 118.128H80.4977C73.9995 118.128 67.7675 115.566 63.1726 111.005C58.5777 106.444 55.9963 100.258 55.9963 93.8077V79.9103C55.9963 73.46 58.5777 67.274 63.1726 62.7131Z" fill="url(&quot;#svg-1260778850_5626_paint1_linear_1319_8103&quot;)"></path>
<path fill-rule="evenodd" clip-rule="evenodd" d="M66.4969 152.872C72.2962 152.872 76.9975 157.538 76.9975 163.295V163.434C76.9975 169.19 72.2962 173.857 66.4969 173.857C60.6976 173.857 55.9963 169.19 55.9963 163.434V163.295C55.9963 157.538 60.6976 152.872 66.4969 152.872Z" fill="url(&quot;#svg-1260778850_5626_paint2_linear_1319_8103&quot;)"></path>
<path fill-rule="evenodd" clip-rule="evenodd" d="M122.5 152.872C128.299 152.872 133.001 157.538 133.001 163.295V163.434C133.001 169.19 128.299 173.857 122.5 173.857C116.701 173.857 111.999 169.19 111.999 163.434V163.295C111.999 157.538 116.701 152.872 122.5 152.872Z" fill="url(&quot;#svg-1260778850_5626_paint3_linear_1319_8103&quot;)"></path>
<path fill-rule="evenodd" clip-rule="evenodd" d="M178.503 152.872C184.302 152.872 189.004 157.538 189.004 163.295V163.434C189.004 169.19 184.302 173.857 178.503 173.857C172.704 173.857 168.003 169.19 168.003 163.434V163.295C168.003 157.538 172.704 152.872 178.503 152.872Z" fill="url(&quot;#svg-1260778850_5626_paint4_linear_1319_8103&quot;)"></path>
<path fill-rule="evenodd" clip-rule="evenodd" d="M66.4969 194.564C72.2962 194.564 76.9975 199.231 76.9975 204.987V205.126C76.9975 210.883 72.2962 215.549 66.4969 215.549C60.6976 215.549 55.9963 210.883 55.9963 205.126V204.987C55.9963 199.231 60.6976 194.564 66.4969 194.564Z" fill="url(&quot;#svg-1260778850_5626_paint5_linear_1319_8103&quot;)"></path>
<path fill-rule="evenodd" clip-rule="evenodd" d="M122.5 194.564C128.299 194.564 133.001 199.231 133.001 204.987V205.126C133.001 210.883 128.299 215.549 122.5 215.549C116.701 215.549 111.999 210.883 111.999 205.126V204.987C111.999 199.231 116.701 194.564 122.5 194.564Z" fill="url(&quot;#svg-1260778850_5626_paint6_linear_1319_8103&quot;)"></path>
<path fill-rule="evenodd" clip-rule="evenodd" d="M178.503 194.564C184.302 194.564 189.004 199.231 189.004 204.987V205.126C189.004 210.883 184.302 215.549 178.503 215.549C172.704 215.549 168.003 210.883 168.003 205.126V204.987C168.003 199.231 172.704 194.564 178.503 194.564Z" fill="url(&quot;#svg-1260778850_5626_paint7_linear_1319_8103&quot;)"></path>
<defs>
<linearGradient id="svg-1260778850_5626_paint0_linear_1319_8103" x1="-0.00683569" y1="38.9795" x2="120.839" y2="148.47" gradientUnits="userSpaceOnUse">
<stop stop-color="#F4F6FF"></stop>
<stop offset="1" stop-color="#DCE2FF"></stop>
</linearGradient>
<linearGradient id="svg-1260778850_5626_paint1_linear_1319_8103" x1="-0.00683569" y1="38.9795" x2="120.839" y2="148.47" gradientUnits="userSpaceOnUse">
<stop stop-color="#F4F6FF"></stop>
<stop offset="1" stop-color="#DCE2FF"></stop>
</linearGradient>
<linearGradient id="svg-1260778850_5626_paint2_linear_1319_8103" x1="-0.00683569" y1="38.9795" x2="120.839" y2="148.47" gradientUnits="userSpaceOnUse">
<stop stop-color="#F4F6FF"></stop>
<stop offset="1" stop-color="#DCE2FF"></stop>
</linearGradient>
<linearGradient id="svg-1260778850_5626_paint3_linear_1319_8103" x1="-0.00683569" y1="38.9795" x2="120.839" y2="148.47" gradientUnits="userSpaceOnUse">
<stop stop-color="#F4F6FF"></stop>
<stop offset="1" stop-color="#DCE2FF"></stop>
</linearGradient>
<linearGradient id="svg-1260778850_5626_paint4_linear_1319_8103" x1="-0.00683569" y1="38.9795" x2="120.839" y2="148.47" gradientUnits="userSpaceOnUse">
<stop stop-color="#F4F6FF"></stop>
<stop offset="1" stop-color="#DCE2FF"></stop>
</linearGradient>
<linearGradient id="svg-1260778850_5626_paint5_linear_1319_8103" x1="-0.00683569" y1="38.9795" x2="120.839" y2="148.47" gradientUnits="userSpaceOnUse">
<stop stop-color="#F4F6FF"></stop>
<stop offset="1" stop-color="#DCE2FF"></stop>
</linearGradient>
<linearGradient id="svg-1260778850_5626_paint6_linear_1319_8103" x1="-0.00683569" y1="38.9795" x2="120.839" y2="148.47" gradientUnits="userSpaceOnUse">
<stop stop-color="#F4F6FF"></stop>
<stop offset="1" stop-color="#DCE2FF"></stop>
</linearGradient>
<linearGradient id="svg-1260778850_5626_paint7_linear_1319_8103" x1="-0.00683569" y1="38.9795" x2="120.839" y2="148.47" gradientUnits="userSpaceOnUse">
<stop stop-color="#F4F6FF"></stop>
<stop offset="1" stop-color="#DCE2FF"></stop>
</linearGradient>
<linearGradient id="svg-1260778850_5626_paint0_linear_1319_8103" x1="-0.00683569" y1="38.9795" x2="120.839" y2="148.47" gradientUnits="userSpaceOnUse">
<stop stop-color="#F4F6FF"></stop>
<stop offset="1" stop-color="#DCE2FF"></stop>
</linearGradient><linearGradient id="svg-1260778850_5626_paint1_linear_1319_8103" x1="-0.00683569" y1="38.9795" x2="120.839" y2="148.47" gradientUnits="userSpaceOnUse">
<stop stop-color="#F4F6FF"></stop>
<stop offset="1" stop-color="#DCE2FF"></stop>
</linearGradient><linearGradient id="svg-1260778850_5626_paint2_linear_1319_8103" x1="-0.00683569" y1="38.9795" x2="120.839" y2="148.47" gradientUnits="userSpaceOnUse">
<stop stop-color="#F4F6FF"></stop>
<stop offset="1" stop-color="#DCE2FF"></stop>
</linearGradient><linearGradient id="svg-1260778850_5626_paint3_linear_1319_8103" x1="-0.00683569" y1="38.9795" x2="120.839" y2="148.47" gradientUnits="userSpaceOnUse">
<stop stop-color="#F4F6FF"></stop>
<stop offset="1" stop-color="#DCE2FF"></stop>
</linearGradient><linearGradient id="svg-1260778850_5626_paint4_linear_1319_8103" x1="-0.00683569" y1="38.9795" x2="120.839" y2="148.47" gradientUnits="userSpaceOnUse">
<stop stop-color="#F4F6FF"></stop>
<stop offset="1" stop-color="#DCE2FF"></stop>
</linearGradient><linearGradient id="svg-1260778850_5626_paint5_linear_1319_8103" x1="-0.00683569" y1="38.9795" x2="120.839" y2="148.47" gradientUnits="userSpaceOnUse">
<stop stop-color="#F4F6FF"></stop>
<stop offset="1" stop-color="#DCE2FF"></stop>
</linearGradient><linearGradient id="svg-1260778850_5626_paint6_linear_1319_8103" x1="-0.00683569" y1="38.9795" x2="120.839" y2="148.47" gradientUnits="userSpaceOnUse">
<stop stop-color="#F4F6FF"></stop>
<stop offset="1" stop-color="#DCE2FF"></stop>
</linearGradient><linearGradient id="svg-1260778850_5626_paint7_linear_1319_8103" x1="-0.00683569" y1="38.9795" x2="120.839" y2="148.47" gradientUnits="userSpaceOnUse">
<stop stop-color="#F4F6FF"></stop>
<stop offset="1" stop-color="#DCE2FF"></stop>
</linearGradient></defs>
</svg>